classDiagram
  class AzureBlobBackend {
    container_name : str
    prefix : str
    remote_source : bool
    scheme : str
    \_\_init\_\_(account_url: str, container_name: str, prefix: str, connection_string: str | None, credential: TokenCredential | None, client_options: AzureBlobClientOptions | None) None
    close() None
    download_file(source_path: str, destination_path: str) None
    exists(file_path: str) bool
    get_file_identity(file_path: str) str
    get_file_list() list[str]
    get_file_list_with_metadata() list[FileInfo]
    get_file_size(file_path: str) int
    read_file(file_path: str) IOPathWrapper
    write_file(data: IOPathWrapper, file_path: str) None
  }
  style AzureBlobBackend fill:#77AADD
  class AzureBlobClientOptions {
    connection_timeout : int | None
    max_block_size : int | None
    max_single_put_size : int | None
    read_timeout : int | None
    \_\_init\_\_(self, max_single_put_size: int | None, max_block_size: int | None, connection_timeout: int | None, read_timeout: int | None) None
  }
  style AzureBlobClientOptions fill:#77AADD
  class BackendClientOptions {
    \_\_init\_\_()* None
    as_kwargs() dict[str, Any]
  }
  style BackendClientOptions fill:#77AADD
  class BaseBackend {
    remote_source : bool
    scheme : str
    close()* None
    download_file(source_path: str, destination_path: str)* None
    exists(file_path: str)* bool
    get_file_identity(file_path: str)* str
    get_file_list()* list[str]
    get_file_list_with_metadata()* list[FileInfo]
    get_file_size(file_path: str)* int
    read_file(file_path: str)* IOPathWrapper
    write_file(data: IOPathWrapper, file_path: str)* None
  }
  style BaseBackend fill:#77AADD
  class FileInfo {
    file_identity : str | None
    last_modified : datetime
    path : str
    size : int
    \_\_init\_\_(self, path: str, last_modified: datetime, size: int, file_identity: str | None) None
  }
  style FileInfo fill:#77AADD
  class LocalBackend {
    pattern : str
    remote_source : bool
    scheme : str
    \_\_init\_\_(pattern: str, recursive: bool) None
    close()* None
    download_file(source_path: str, destination_path: str)* None
    exists(file_path: str) bool
    get_file_identity(file_path: str) str
    get_file_list() list[str]
    get_file_list_with_metadata() list[FileInfo]
    get_file_size(file_path: str) int
    read_file(file_path: str) IOPathWrapper
    write_file(data: IOPathWrapper, file_path: str) None
  }
  style LocalBackend fill:#77AADD
  class S3Backend {
    bucket : str
    prefix : str
    remote_source : bool
    scheme : str
    \_\_init\_\_(bucket: str, prefix: str, session: boto3.Session | None, client_options: S3ClientOptions | None) None
    close() None
    download_file(source_path: str, destination_path: str) None
    exists(file_path: str) bool
    get_file_identity(file_path: str) str
    get_file_list() list[str]
    get_file_list_with_metadata() list[FileInfo]
    get_file_size(file_path: str) int
    read_file(file_path: str) IOPathWrapper
    write_file(data: IOPathWrapper, file_path: str) None
  }
  style S3Backend fill:#77AADD
  class S3ClientOptions {
    connect_timeout : int | float | None
    max_pool_connections : int | None
    read_timeout : int | float | None
    \_\_init\_\_(self, connect_timeout: int | float | None, read_timeout: int | float | None, max_pool_connections: int | None) None
  }
  style S3ClientOptions fill:#77AADD
  class TqdmCallback {
    \_\_init\_\_(total: int, desc: str, delay: float)
    callback(bytes_amount: int) None
  }
  style TqdmCallback fill:#77AADD
  AzureBlobBackend --|> BaseBackend
  LocalBackend --|> BaseBackend
  AzureBlobClientOptions --|> BackendClientOptions
  S3ClientOptions --|> BackendClientOptions
  S3Backend --|> BaseBackend
