classDiagram
  class transforms {
  }
  style transforms fill:#77AADD
  class augmentation {
  }
  style augmentation fill:#77AADD
  class base {
  }
  style base fill:#77AADD
  class compose {
  }
  style compose fill:#77AADD
  class frequency {
  }
  style frequency fill:#77AADD
  class normalization {
  }
  style normalization fill:#77AADD
  class preprocessing {
  }
  style preprocessing fill:#77AADD
  class sampling {
  }
  style sampling fill:#77AADD
  class utils {
  }
  style utils fill:#77AADD
  transforms --> augmentation
  transforms --> base
  transforms --> compose
  transforms --> frequency
  transforms --> normalization
  transforms --> preprocessing
  transforms --> sampling
  transforms --> utils
  augmentation --> base
  augmentation --> utils
  compose --> base
  frequency --> base
  normalization --> base
  preprocessing --> base
  preprocessing --> utils
  sampling --> base
  sampling --> utils
  utils --> base
  utils --> compose
