classDiagram
  class backends {
  }
  style backends fill:#77AADD
  class azure_backend {
  }
  style azure_backend fill:#77AADD
  class base_backend {
  }
  style base_backend fill:#77AADD
  class local_backend {
  }
  style local_backend fill:#77AADD
  class options {
  }
  style options fill:#77AADD
  class progress {
  }
  style progress fill:#77AADD
  class s3_backend {
  }
  style s3_backend fill:#77AADD
  backends --> azure_backend
  backends --> base_backend
  backends --> local_backend
  backends --> options
  backends --> s3_backend
  azure_backend --> base_backend
  azure_backend --> options
  azure_backend --> progress
  local_backend --> base_backend
  s3_backend --> base_backend
  s3_backend --> options
  s3_backend --> progress
